<?xml version="1.0" encoding="UTF-8" standalone="no"?>
<!-- Uploaded to SVGRepo https://www.svgrepo.com -->

<svg
   xmlns:dc="http://purl.org/dc/elements/1.1/"
   xmlns:cc="http://creativecommons.org/ns#"
   xmlns:rdf="http://www.w3.org/1999/02/22-rdf-syntax-ns#"
   xmlns:svg="http://www.w3.org/2000/svg"
   xmlns="http://www.w3.org/2000/svg"
   xmlns:sodipodi="http://sodipodi.sourceforge.net/DTD/sodipodi-0.dtd"
   xmlns:inkscape="http://www.inkscape.org/namespaces/inkscape"
   version="1.1"
   x="0px"
   y="0px"
   viewBox="0 0 32 32"
   style="enable-background:new 0 0 32 32;"
   xml:space="preserve"
   id="svg5"
   sodipodi:docname="object_module.svg"
   inkscape:version="0.92.5 (2060ec1f9f, 2020-04-08)"
   inkscape:export-filename="/home/john/WWW/dolibarr/htdocs/custom/shippableorder/img/logo.png"
   inkscape:export-xdpi="4500"
   inkscape:export-ydpi="4500"><metadata
   id="metadata11"><rdf:RDF><cc:Work
       rdf:about=""><dc:format>image/svg+xml</dc:format><dc:type
         rdf:resource="http://purl.org/dc/dcmitype/StillImage" /></cc:Work></rdf:RDF></metadata><defs
   id="defs9">
	

	
</defs><sodipodi:namedview
   pagecolor="#505050"
   bordercolor="#ffffff"
   borderopacity="1"
   objecttolerance="10"
   gridtolerance="10"
   guidetolerance="10"
   inkscape:pageopacity="0"
   inkscape:pageshadow="2"
   inkscape:window-width="1920"
   inkscape:window-height="1011"
   id="namedview7"
   showgrid="false"
   inkscape:zoom="14.75"
   inkscape:cx="16.866641"
   inkscape:cy="11.61247"
   inkscape:window-x="1920"
   inkscape:window-y="0"
   inkscape:window-maximized="1"
   inkscape:current-layer="svg5" />
<path
   d="M 1,0.640625 C 0.801,0.640625 0.640625,0.801 0.640625,1 v 30 c 0,0.199 0.160375,0.359375 0.359375,0.359375 h 16 v -0.71875 H 1.359375 V 1.359375 h 17.28125 V 7 c 0,0.199 0.160375,0.359375 0.359375,0.359375 h 5.640625 V 15 h 0.71875 V 7 c 0,-0.096 -0.03652,-0.1878594 -0.103516,-0.2558594 l -6,-5.99999998 C 19.188859,0.67714063 19.096,0.640625 19,0.640625 Z M 19.359375,1.8691406 24.130859,6.640625 H 19.359375 Z M 5,10.640625 v 0.71875 h 16 v -0.71875 z m 0,4 v 0.71875 h 16 v -0.71875 z"
   id="invoice_1_"
   style="fill:#00384e;fill-opacity:1;stroke:#00384e;stroke-width:0.5;stroke-miterlimit:4;stroke-dasharray:none;stroke-opacity:1"
   inkscape:connector-curvature="0"
   sodipodi:nodetypes="sssscccccsscccscssscccccccccccccc" />
<g
   id="Layer_1">
</g>
<g
   id="g822"
   transform="matrix(0.02906237,0,0,0.02906237,18.683794,18.612031)">
</g><g
   id="g824"
   transform="matrix(0.02906237,0,0,0.02906237,18.683794,18.612031)">
</g><g
   id="g826"
   transform="matrix(0.02906237,0,0,0.02906237,18.683794,18.612031)">
</g><g
   id="g828"
   transform="matrix(0.02906237,0,0,0.02906237,18.683794,18.612031)">
</g><g
   id="g830"
   transform="matrix(0.02906237,0,0,0.02906237,18.683794,18.612031)">
</g><g
   id="g832"
   transform="matrix(0.02906237,0,0,0.02906237,18.683794,18.612031)">
</g><g
   id="g834"
   transform="matrix(0.02906237,0,0,0.02906237,18.683794,18.612031)">
</g><g
   id="g836"
   transform="matrix(0.02906237,0,0,0.02906237,18.683794,18.612031)">
</g><g
   id="g838"
   transform="matrix(0.02906237,0,0,0.02906237,18.683794,18.612031)">
</g><g
   id="g840"
   transform="matrix(0.02906237,0,0,0.02906237,18.683794,18.612031)">
</g><g
   id="g842"
   transform="matrix(0.02906237,0,0,0.02906237,18.683794,18.612031)">
</g><g
   id="g844"
   transform="matrix(0.02906237,0,0,0.02906237,18.683794,18.612031)">
</g><g
   id="g846"
   transform="matrix(0.02906237,0,0,0.02906237,18.683794,18.612031)">
</g><g
   id="g848"
   transform="matrix(0.02906237,0,0,0.02906237,18.683794,18.612031)">
</g><g
   id="g850"
   transform="matrix(0.02906237,0,0,0.02906237,18.683794,18.612031)">
</g><g
   style="fill:#cb4f24;fill-opacity:1"
   transform="matrix(0.04433009,0,0,0.04433009,9.9485551,13.532919)"
   id="g1138"><path
     inkscape:connector-curvature="0"
     style="fill:#cb4f24;fill-opacity:1"
     d="m 432.958,222.262 c -1.452,-0.305 -2.823,-0.592 -4.042,-0.909 -13.821,-3.594 -20.129,-5.564 -24.793,-14.569 l -17.667,-35.768 c -5.678,-10.961 -20.339,-19.879 -32.682,-19.879 h -31.453 v -41.303 c 0,-7.416 -6.034,-13.45 -13.452,-13.45 l -219.07,0.22 c -7.218,0 -12.661,5.736 -12.661,13.343 v 12.208 H 21.018 C 9.429,122.156 0,131.584 0,143.174 c 0,11.59 9.429,21.018 21.018,21.018 h 56.119 v 20.145 H 40.394 c -11.589,0 -21.018,9.429 -21.018,21.018 0,11.589 9.429,21.018 21.018,21.018 h 36.743 v 20.145 H 59.77 c -11.589,0 -21.018,9.429 -21.018,21.018 0,11.589 9.429,21.018 21.018,21.018 h 17.367 v 21.07 c 0,7.416 6.034,13.45 13.45,13.45 h 22.788 c 3.549,24.323 24.542,43.064 49.837,43.064 25.297,0 46.291,-18.741 49.841,-43.064 h 92.224 c 0.479,0 0.97,-0.032 1.46,-0.064 3.522,24.354 24.528,43.128 49.845,43.128 25.297,0 46.291,-18.741 49.841,-43.064 h 32.732 c 12.885,0 23.368,-10.482 23.368,-23.366 V 260.06 c -0.001,-31.595 -17.793,-35.328 -29.565,-37.798 z m -76.376,75.198 c 10.1,0 18.317,8.214 18.317,18.311 0,10.097 -8.217,18.311 -18.317,18.311 -10.096,0 -18.31,-8.214 -18.31,-18.311 0,-10.097 8.214,-18.311 18.31,-18.311 z m -34.261,-78.046 v -48.77 h 24.036 c 9.238,0 20.634,6.932 24.864,15.094 l 15.721,31.829 c 0.333,0.644 0.679,1.258 1.038,1.846 H 322.321 Z M 181.529,315.77 c 0,10.096 -8.217,18.311 -18.317,18.311 -10.096,0 -18.309,-8.214 -18.309,-18.311 0,-10.097 8.213,-18.311 18.309,-18.311 10.1,10e-4 18.317,8.215 18.317,18.311 z"
     id="path1083" /><g
     style="fill:#cb4f24;fill-opacity:1"
     id="g1085" /><g
     style="fill:#cb4f24;fill-opacity:1"
     id="g1087" /><g
     style="fill:#cb4f24;fill-opacity:1"
     id="g1089" /><g
     style="fill:#cb4f24;fill-opacity:1"
     id="g1091" /><g
     style="fill:#cb4f24;fill-opacity:1"
     id="g1093" /><g
     style="fill:#cb4f24;fill-opacity:1"
     id="g1095" /><g
     style="fill:#cb4f24;fill-opacity:1"
     id="g1097" /><g
     style="fill:#cb4f24;fill-opacity:1"
     id="g1099" /><g
     style="fill:#cb4f24;fill-opacity:1"
     id="g1101" /><g
     style="fill:#cb4f24;fill-opacity:1"
     id="g1103" /><g
     style="fill:#cb4f24;fill-opacity:1"
     id="g1105" /><g
     style="fill:#cb4f24;fill-opacity:1"
     id="g1107" /><g
     style="fill:#cb4f24;fill-opacity:1"
     id="g1109" /><g
     style="fill:#cb4f24;fill-opacity:1"
     id="g1111" /><g
     style="fill:#cb4f24;fill-opacity:1"
     id="g1113" /></g><path
   sodipodi:nodetypes="ccccc"
   inkscape:connector-curvature="0"
   style="fill:#00384e;fill-opacity:1;stroke:#00384e;stroke-width:0.2853044;stroke-miterlimit:4;stroke-dasharray:none;stroke-opacity:1"
   id="path887"
   d="m 4.8926522,18.533277 v 0.933446 H 8.903958 v -0.933446 z" /><path
   d="m 4.8926522,22.533277 v 0.933446 H 8.903958 v -0.933446 z"
   id="path889"
   style="fill:#00384e;fill-opacity:1;stroke:#00384e;stroke-width:0.2853044;stroke-miterlimit:4;stroke-dasharray:none;stroke-opacity:1"
   inkscape:connector-curvature="0"
   sodipodi:nodetypes="ccccc" /><path
   sodipodi:nodetypes="ccccc"
   inkscape:connector-curvature="0"
   style="fill:#00384e;fill-opacity:1;stroke:#00384e;stroke-width:0.3447848;stroke-miterlimit:4;stroke-dasharray:none;stroke-opacity:1"
   id="path891"
   d="m 4.9223924,26.563017 v 0.873966 h 6.2569106 v -0.873966 z" /></svg>